<svg id="Camada_1" data-name="Camada 1" xmlns="http://www.w3.org/2000/svg" viewBox="0 0 108.5 20.79"><defs><style>.cls-1{fill:#411946;}.cls-2{fill:#411a46;}.cls-3{fill:#441c48;}.cls-4{fill:#fefefe;}</style></defs><title>logo2</title><path class="cls-1" d="M287.56,462.45h-7.8c-2.33,0-2.92-.59-2.92-2.9a1.45,1.45,0,0,1,0-.36c.08-.5-.28-1.26.2-1.44a4.26,4.26,0,0,1,2.13-.05c.59.1.34.75.29,1.12-.14,1.16.21,1.53,1.46,1.51,4.56-.1,9.12-.08,13.68,0,1,0,1.28-.29,1.22-1.27a28.71,28.71,0,0,1,0-3.71c.05-.83-.19-1.08-1-1.07-4.72,0-9.44,0-14.16,0-2.36,0-3.27-.89-3.29-3.22q0-3.18,0-6.36a2.61,2.61,0,0,1,2.9-2.89q7.56,0,15.12,0a2.29,2.29,0,0,1,2.62,2.55,1.93,1.93,0,0,1,0,.48c-.08.49.28,1.25-.21,1.43a4.22,4.22,0,0,1-2.12.05c-.59-.11-.33-.75-.29-1.12.11-1-.2-1.27-1.23-1.26q-6.35.1-12.71,0c-1,0-1.26.31-1.22,1.27.08,2,.07,3.92,0,5.88,0,.83.2,1.07,1,1.06,4.64,0,9.28,0,13.92,0,2.57,0,3.29.71,3.29,3.24,0,1.48,0,3,0,4.44a2.42,2.42,0,0,1-2.72,2.63C293,462.47,290.28,462.45,287.56,462.45Z" transform="translate(-243.31 -441.74)"/><path class="cls-1" d="M317.36,462.45H310c-2.06,0-3-.81-3-2.87q-.09-7.38,0-14.76c0-2.05,1.13-3,3.23-3h14.63c2,0,3,.82,3,2.75q.12,7.56,0,15.12c0,2-1,2.75-3,2.77Z" transform="translate(-243.31 -441.74)"/><path class="cls-2" d="M331,442c2.12-.72,3.33.32,4.58,1.75,4.24,4.84,8.6,9.58,12.91,14.36.12.14.25.27.61.65v-1.53c0-4.76.05-9.52,0-14.28,0-1.16.5-1.16,1.35-1.14s1.38-.07,1.37,1.12c-.07,6,0,12-.05,18,0,.5.37,1.36-.29,1.46-.87.13-1.87.45-2.67-.46-2.1-2.41-4.25-4.78-6.39-7.16l-10.63-11.88Z" transform="translate(-243.31 -441.74)"/><path class="cls-1" d="M255.84,462.53l-12.53-20.72c1,0,1.84,0,2.67,0,.64-.05.78.42,1,.82l8.13,14,.62,1c.51-.26.62-.76.84-1.15,2.55-4.47,5.11-8.93,7.6-13.43.5-.91,1-1.42,2.11-1.25a13.94,13.94,0,0,0,2.07,0Z" transform="translate(-243.31 -441.74)"/><path class="cls-2" d="M273.88,452.37c0,3-.07,6.07,0,9.1,0,1.24-.68,1-1.35,1s-1.37.25-1.35-1q.1-9.21,0-18.43c0-1.35.82-.92,1.48-1s1.25-.1,1.22,1C273.82,446.15,273.88,449.26,273.88,452.37Z" transform="translate(-243.31 -441.74)"/><path class="cls-2" d="M301.24,452.25c0-3.07.06-6.14,0-9.21,0-1.35.81-.94,1.47-1s1.24-.11,1.23,1q-.09,9.21,0,18.43c0,1.24-.67,1-1.34,1s-1.4.25-1.36-1C301.3,458.4,301.24,455.32,301.24,452.25Z" transform="translate(-243.31 -441.74)"/><path class="cls-3" d="M331,445.12c1.44,1.38,2.73,2.56,2.58,4.9-.26,3.85-.11,7.73-.05,11.6,0,1-.59.91-1.14.81s-1.55.6-1.54-.76c0-5.38,0-10.76,0-16.15A1.59,1.59,0,0,1,331,445.12Z" transform="translate(-243.31 -441.74)"/><path class="cls-4" d="M325.24,452c0,2.4,0,4.8,0,7.2,0,.66-.15.88-.85.88q-6.9,0-13.79,0c-.64,0-.91-.12-.9-.84q0-7.19,0-14.39c0-.67.17-.88.86-.87,4.6,0,9.2,0,13.79,0,.8,0,.9.29.89,1C325.22,447.27,325.24,449.63,325.24,452Z" transform="translate(-243.31 -441.74)"/></svg>